<mxfile host="app.diagrams.net" modified="2022-09-06T22:07:42.427Z" agent="5.0 (Windows NT 10.0; Win64; x64) AppleWebKit/537.36 (KHTML, like Gecko) Chrome/104.0.0.0 Safari/537.36" etag="oUkoNp6FQTq7gpfRrbt7" version="20.2.8" type="github">
  <diagram id="iL5g7QFURnzVSpQdVxL9" name="Page-1">
    <mxGraphModel dx="782" dy="1643" grid="1" gridSize="10" guides="1" tooltips="1" connect="1" arrows="1" fold="1" page="1" pageScale="1" pageWidth="827" pageHeight="1169" math="0" shadow="0">
      <root>
        <mxCell id="0" />
        <mxCell id="1" parent="0" />
        <mxCell id="OXCrKDdEGUTZPmi1r7tx-1" value="" style="rounded=0;whiteSpace=wrap;html=1;" vertex="1" parent="1">
          <mxGeometry x="240" y="-665" width="450" height="325" as="geometry" />
        </mxCell>
        <mxCell id="OXCrKDdEGUTZPmi1r7tx-2" value="" style="rounded=0;whiteSpace=wrap;html=1;shadow=0;" vertex="1" parent="1">
          <mxGeometry x="259" y="-640" width="421" height="50" as="geometry" />
        </mxCell>
        <mxCell id="OXCrKDdEGUTZPmi1r7tx-3" value="" style="rounded=0;whiteSpace=wrap;html=1;" vertex="1" parent="1">
          <mxGeometry x="270" y="-630" width="120" height="30" as="geometry" />
        </mxCell>
        <mxCell id="OXCrKDdEGUTZPmi1r7tx-4" value="Search bar" style="rounded=0;whiteSpace=wrap;html=1;" vertex="1" parent="1">
          <mxGeometry x="500" y="-630" width="90" height="30" as="geometry" />
        </mxCell>
        <mxCell id="OXCrKDdEGUTZPmi1r7tx-5" value="user info" style="rounded=0;whiteSpace=wrap;html=1;" vertex="1" parent="1">
          <mxGeometry x="270" y="-570" width="120" height="40" as="geometry" />
        </mxCell>
        <mxCell id="OXCrKDdEGUTZPmi1r7tx-6" value="description" style="rounded=0;whiteSpace=wrap;html=1;" vertex="1" parent="1">
          <mxGeometry x="270" y="-510" width="120" height="140" as="geometry" />
        </mxCell>
        <mxCell id="OXCrKDdEGUTZPmi1r7tx-7" value="" style="rounded=0;whiteSpace=wrap;html=1;" vertex="1" parent="1">
          <mxGeometry x="414" y="-570" width="120" height="200" as="geometry" />
        </mxCell>
        <mxCell id="OXCrKDdEGUTZPmi1r7tx-8" value="add new friens" style="rounded=0;whiteSpace=wrap;html=1;" vertex="1" parent="1">
          <mxGeometry x="550" y="-580" width="120" height="210" as="geometry" />
        </mxCell>
        <mxCell id="OXCrKDdEGUTZPmi1r7tx-9" value="post bar" style="rounded=0;whiteSpace=wrap;html=1;" vertex="1" parent="1">
          <mxGeometry x="420" y="-560" width="110" height="20" as="geometry" />
        </mxCell>
        <mxCell id="OXCrKDdEGUTZPmi1r7tx-10" value="friend&#39;s status" style="rounded=0;whiteSpace=wrap;html=1;" vertex="1" parent="1">
          <mxGeometry x="420" y="-530" width="110" height="30" as="geometry" />
        </mxCell>
        <mxCell id="OXCrKDdEGUTZPmi1r7tx-11" value="friend&#39;s status" style="rounded=0;whiteSpace=wrap;html=1;" vertex="1" parent="1">
          <mxGeometry x="420" y="-490" width="110" height="30" as="geometry" />
        </mxCell>
        <mxCell id="OXCrKDdEGUTZPmi1r7tx-12" value="friend&#39;s status" style="rounded=0;whiteSpace=wrap;html=1;" vertex="1" parent="1">
          <mxGeometry x="420" y="-449" width="110" height="30" as="geometry" />
        </mxCell>
        <mxCell id="OXCrKDdEGUTZPmi1r7tx-13" value="ppl you may know" style="rounded=0;whiteSpace=wrap;html=1;" vertex="1" parent="1">
          <mxGeometry x="560" y="-469" width="100" height="20" as="geometry" />
        </mxCell>
        <mxCell id="OXCrKDdEGUTZPmi1r7tx-14" value="ppl you may know" style="rounded=0;whiteSpace=wrap;html=1;" vertex="1" parent="1">
          <mxGeometry x="560" y="-444" width="100" height="20" as="geometry" />
        </mxCell>
        <mxCell id="OXCrKDdEGUTZPmi1r7tx-15" value="ppl you may know" style="rounded=0;whiteSpace=wrap;html=1;" vertex="1" parent="1">
          <mxGeometry x="560" y="-410" width="100" height="20" as="geometry" />
        </mxCell>
        <mxCell id="OXCrKDdEGUTZPmi1r7tx-16" value="Tweet" style="rounded=0;whiteSpace=wrap;html=1;" vertex="1" parent="1">
          <mxGeometry x="610" y="-630" width="60" height="30" as="geometry" />
        </mxCell>
      </root>
    </mxGraphModel>
  </diagram>
</mxfile>
